Coordinates
version=1
nRows=29
nColumns=24
inDegrees=yes

Units are S.I. units (second, meters, Newtons, ...)
Angles are in degrees.

endheader
time	pelvis_tilt	pelvis_list	pelvis_rotation	pelvis_tx	pelvis_ty	pelvis_tz	hip_flexion_r	hip_adduction_r	hip_rotation_r	knee_angle_r	ankle_angle_r	subtalar_angle_r	mtp_angle_r	hip_flexion_l	hip_adduction_l	hip_rotation_l	knee_angle_l	ankle_angle_l	subtalar_angle_l	mtp_angle_l	lumbar_extension	lumbar_bending	lumbar_rotation
      4.18500000	     -5.20301568	     -6.96486638	     -0.55621433	      0.05713739	     -0.01417282	     -0.12848692	      9.87128051	     15.94002682	     13.93335814	    -16.11763380	     -0.45353296	     -4.10402771	      9.15272327	     34.39000409	     -8.00305717	     -7.62670067	    -64.39008812	     -0.62055169	     -7.70679942	    -19.17179398	      4.13536433	      5.20618984	     -0.25582753
      4.19000000	     -5.22331394	     -6.78517949	     -0.72485951	      0.06276880	     -0.01366704	     -0.12821868	      9.16205150	     15.74297907	     14.28074517	    -15.65223304	     -0.35902232	     -4.17844857	      9.11201521	     34.97716745	     -7.71843507	     -7.72243513	    -63.16752950	     -0.05590959	     -7.12615519	    -18.74205194	      4.11368487	      5.03449466	     -0.02207341
      4.19500000	     -5.31251321	     -6.59536353	     -0.84559134	      0.06836840	     -0.01330077	     -0.12807136	      8.57578556	     15.52121336	     14.51942153	    -15.24949408	     -0.21686045	     -4.22576774	      9.10264004	     35.61540933	     -7.38331032	     -7.79295394	    -61.85841962	      0.47718966	     -6.61110703	    -18.48196653	      4.16805808	      4.85165567	      0.10170188
      4.20000000	     -5.31697403	     -6.43046490	     -1.02399220	      0.07398884	     -0.01290495	     -0.12778971	      7.87284456	     15.33838422	     14.84378920	    -14.81233500	     -0.13256169	     -4.30500577	      9.06756884	     36.11420183	     -7.17036916	     -7.96627749	    -60.50409582	      1.04498616	     -5.86910300	    -18.15300356	      4.12392176	      4.70093209	      0.37777352
      4.20500000	     -5.36248437	     -6.25463031	     -1.15735553	      0.07959240	     -0.01260279	     -0.12763088	      7.25488823	     15.13596284	     15.09706739	    -14.43450528	     -0.03149895	     -4.42043590	      9.03427665	     36.61966381	     -6.90199565	     -8.10424145	    -59.04985432	      1.55276124	     -5.19875491	    -17.91646701	      4.13016341	      4.53958826	      0.54986312
      4.21000000	     -5.42133321	     -6.08732445	     -1.26197208	      0.08515676	     -0.01238311	     -0.12754288	      6.67538860	     14.93604093	     15.30643603	    -14.08366862	      0.06955255	     -4.53130531	      9.00621404	     37.11474330	     -6.64073400	     -8.25835476	    -57.53362892	      2.03405632	     -4.50226350	    -17.74485071	      4.14189658	      4.39086603	      0.70510949
      4.21500000	     -5.53812104	     -5.91954881	     -1.33143510	      0.09068360	     -0.01228186	     -0.12754347	      6.20435705	     14.73445689	     15.40601189	    -13.79582394	      0.20389528	     -4.63294640	      8.99292428	     37.64176616	     -6.34207884	     -8.36701829	    -55.93847376	      2.43675717	     -3.84626496	    -17.64945535	      4.21409590	      4.23559140	      0.77550112
      4.22000000	     -5.55901364	     -5.77440748	     -1.44124555	      0.09624845	     -0.01214114	     -0.12749640	      5.59622626	     14.55770903	     15.60409638	    -13.46288587	      0.29901546	     -4.75913934	      8.96661649	     38.01263216	     -6.15080919	     -8.61274542	    -54.30735774	      2.91731289	     -2.98783673	    -17.56071812	      4.17861825	      4.12086540	      0.94875042
      4.22500000	     -5.62991414	     -5.62946899	     -1.49865011	      0.10178281	     -0.01210362	     -0.12756342	      5.07928396	     14.37699027	     15.71085541	    -13.18022224	      0.40470198	     -4.89771895	      8.94597320	     38.40729747	     -5.91384949	     -8.81842888	    -52.60072984	      3.31537366	     -2.18345818	    -17.54180333	      4.19615831	      4.00161736	      1.02069153
      4.23000000	     -5.76201251	     -5.49643005	     -1.51952777	      0.10725258	     -0.01220318	     -0.12771177	      4.67482860	     14.21101279	     15.71120703	    -12.96116313	      0.54425712	     -5.01610091	      8.94334143	     38.84579926	     -5.65718441	     -8.99059028	    -50.83784405	      3.63683450	     -1.40536707	    -17.52180902	      4.26802641	      3.89108151	      1.02064670
      4.23500000	     -5.79551576	     -5.39300236	     -1.58019796	      0.11279454	     -0.01223715	     -0.12783751	      4.12249053	     14.06807623	     15.79501587	    -12.68607528	      0.64544350	     -5.10095124	      8.95187446	     39.12187945	     -5.49899163	     -9.28340510	    -49.04973254	      4.04441941	     -0.42690584	    -17.50362748	      4.24273639	      3.82392814	      1.10554993
      4.24000000	     -5.86649983	     -5.29419767	     -1.60647718	      0.11830321	     -0.01236848	     -0.12802784	      3.64096169	     13.93092098	     15.80358709	    -12.45291176	      0.76079398	     -5.19453245	      8.97279450	     39.40979602	     -5.31384906	     -9.54963391	    -47.21195144	      4.39081863	      0.52647137	    -17.50461568	      4.25078226	      3.75854316	      1.12140263
      4.24500000	     -5.99821427	     -5.21147093	     -1.60030149	      0.12377480	     -0.01264001	     -0.12829956	      3.26103673	     13.81222492	     15.73327392	    -12.27399673	      0.90624103	     -5.27627449	      9.00462359	     39.74344559	     -5.11394372	     -9.79142242	    -45.34206641	      4.68883111	      1.46213681	    -17.47467660	      4.31452940	      3.70825512	      1.06858042
      4.25000000	     -6.01624000	     -5.16691203	     -1.64535896	      0.12930504	     -0.01281831	     -0.12849593	      2.71951085	     13.72401487	     15.72372012	    -12.03947224	      1.01667871	     -5.25503986	      9.08659157	     39.90796681	     -5.02500890	    -10.14992789	    -43.47595442	      5.06954894	      2.60085687	    -17.41020050	      4.26709023	      3.70601056	      1.12107782
      4.25500000	     -6.06967336	     -5.12894379	     -1.66619293	      0.13482548	     -0.01309011	     -0.12874767	      2.24053262	     13.64200344	     15.66235646	    -11.84361381	      1.14545091	     -5.22978804	      9.19227682	     40.08577664	     -4.91482167	    -10.49174252	    -41.58599219	      5.40995090	      3.71015496	    -17.34619057	      4.25327866	      3.70535919	      1.11172473
      4.26000000	     -6.10849752	     -5.10959094	     -1.69506382	      0.14035591	     -0.01340538	     -0.12899224	      1.75530015	     13.57769546	     15.57767695	    -11.66689906	      1.28426759	     -5.15514091	      9.34468311	     40.21963686	     -4.83087973	    -10.85765787	    -39.69558559	      5.77256864	      4.85518646	    -17.26030026	      4.22566309	      3.72575591	      1.12197838
      4.26500000	     -6.15583935	     -5.11285893	     -1.72199826	      0.14587810	     -0.01377757	     -0.12922482	      1.28731884	     13.53473067	     15.48844269	    -11.50427187	      1.42464749	     -5.02510737	      9.52479764	     40.35156426	     -4.78013583	    -11.26497316	    -37.82881012	      6.11899645	      6.05555049	    -17.16386068	      4.20008317	      3.76098852	      1.07192968
      4.27000000	     -6.17530259	     -5.13147008	     -1.76487583	      0.15143970	     -0.01415720	     -0.12944742	      0.78625057	     13.50031770	     15.38981693	    -11.34104415	      1.56622514	     -4.82758997	      9.75814767	     40.42298300	     -4.75000379	    -11.68500984	    -35.97146959	      6.47591666	      7.25825586	    -17.06919327	      4.15569838	      3.81966301	      1.10087731
      4.27500000	     -6.18164395	     -5.16300188	     -1.81322719	      0.15701122	     -0.01457138	     -0.12966070	      0.28493106	     13.47705888	     15.28759628	    -11.20897717	      1.71762851	     -4.58250460	     10.04438900	     40.46150268	     -4.73681391	    -12.13558003	    -34.13816830	      6.84501536	      8.46777908	    -16.98557791	      4.09297626	      3.88879303	      1.11969707
      4.28000000	     -6.18241463	     -5.20454417	     -1.87295178	      0.16259109	     -0.01502864	     -0.12986300	     -0.21450754	     13.45952150	     15.18273990	    -11.09236867	      1.87377122	     -4.29336234	     10.36729968	     40.48134320	     -4.74111567	    -12.61232526	    -32.34504482	      7.22232807	      9.68638570	    -16.92259294	      4.02103511	      3.96951562	      1.13090554
      4.28500000	     -6.15504703	     -5.25254743	     -1.94975772	      0.16821159	     -0.01549628	     -0.13002403	     -0.73557591	     13.44597933	     15.08197249	    -11.00178058	      2.04488410	     -3.94457071	     10.75892993	     40.44911060	     -4.76077490	    -13.10495036	    -30.58723089	      7.61633630	     10.89550419	    -16.89699534	      3.93321479	      4.05352316	      1.18277085
      4.29000000	     -6.12633619	     -5.31031888	     -2.03201741	      0.17385969	     -0.01600125	     -0.13018380	     -1.24766265	     13.43923939	     14.98482499	    -10.93636205	      2.21078321	     -3.56135788	     11.18140808	     40.40350160	     -4.78504926	    -13.58901344	    -28.87517238	      8.01198335	     12.07240061	    -16.92078125	      3.84146861	      4.14251462	      1.22838243
      4.29500000	     -6.08128016	     -5.36433472	     -2.13206559	      0.17953943	     -0.01652389	     -0.13035057	     -1.76627883	     13.42109993	     14.89186072	    -10.89790096	      2.38680410	     -3.13250889	     11.64805654	     40.32283277	     -4.80821665	    -14.07022704	    -27.21075047	      8.42291293	     13.22613410	    -16.99534886	      3.72945769	      4.23582952	      1.29554843
      4.30000000	     -6.02026099	     -5.41484128	     -2.24383312	      0.18525923	     -0.01706528	     -0.13052109	     -2.28805242	     13.39441039	     14.80158575	    -10.89167151	      2.58332985	     -2.66657965	     12.17099093	     40.20652482	     -4.82112799	    -14.51604406	    -25.59241388	      8.84744315	     14.31948011	    -17.15089136	      3.61464091	      4.32389592	      1.37477325
      4.30500000	     -5.98500343	     -5.46129329	     -2.33278403	      0.19103470	     -0.01765874	     -0.13069538	     -2.77739100	     13.36573754	     14.72491136	    -10.90542733	      2.76968760	     -2.21898437	     12.61137714	     40.11992176	     -4.81843103	    -14.95089351	    -24.04514768	      9.21881915	     15.40908539	    -17.29189594	      3.53475153	      4.39467547	      1.38143198
      4.31000000	     -5.89473781	     -5.50351900	     -2.46260109	      0.19681941	     -0.01820306	     -0.13089714	     -3.29694873	     13.31919570	     14.64976779	    -10.98141090	      2.98341066	     -1.65493301	     13.14856573	     39.94762416	     -4.81680483	    -15.32792496	    -22.54562241	      9.61717992	     16.41533540	    -17.52580912	      3.39456129	      4.48178737	      1.52616556
      4.31500000	     -5.80169432	     -5.54085244	     -2.60710626	      0.20265357	     -0.01876265	     -0.13110647	     -3.79810745	     13.26383404	     14.51549236	    -11.09478698	      3.19944884	     -1.05587773	     13.72957694	     39.75811152	     -4.80406135	    -15.61031614	    -21.11674660	     10.04577036	     17.32444563	    -17.90616178	      3.25272992	      4.56289234	      1.66613738
      4.32000000	     -5.72462693	     -5.56611142	     -2.74408327	      0.20853915	     -0.01934907	     -0.13133083	     -4.27314261	     13.19357518	     14.41513015	    -11.23556207	      3.43016000	     -0.44719278	     14.27774704	     39.58281533	     -4.77470411	    -15.84035939	    -19.77057472	     10.44176423	     18.19837563	    -18.36410887	      3.13886720	      4.62328805	      1.77390211
      4.32500000	     -5.64142984	     -5.62098135	     -2.80257764	      0.21444491	     -0.01999654	     -0.13177346	     -4.72580185	     13.13701692	     14.18136020	    -11.40956483	      3.68625685	      0.32204256	     15.01604752	     39.43719744	     -4.69871887	    -15.84596444	    -18.58986769	     11.04921751	     18.95643751	    -19.70747809	      3.02478453	      4.72357075	      1.75709246
